<?xml version="1.0" encoding="UTF-8"?>
<svg id="Layer_1" xmlns="http://www.w3.org/2000/svg" version="1.1" viewBox="0 0 255.12 255.12">
  <!-- Generator: Adobe Illustrator 30.0.0, SVG Export Plug-In . SVG Version: 2.1.1 Build 123)  -->
  <defs>
    <style>
      .st0 {
        fill: #14263d;
      }
    </style>
  </defs>
  <g>
    <polygon class="st0" points="26.37 147.29 30.04 150.65 34.02 146.42 29.66 142.44 26.49 145.8 22.82 142.44 18.84 146.67 23.2 150.65 26.37 147.29"/>
    <polygon class="st0" points="144.59 147.29 148.26 150.65 152.24 146.42 147.89 142.44 144.72 145.8 141.05 142.44 137.07 146.67 141.42 150.65 144.59 147.29"/>
    <path class="st0" d="M151.75,176.33h0c3.36,0,5.91-1.49,6.96-4.6.87-2.61,1.87-5.1,1.74-6.59l-1.37-15.55,1.99,1,2.49-6.34-3.23-1.24c-3.48-1.37-4.35-3.61-3.11-5.97l-.37-.12c-1.74,2.11-3.98,4.23-3.98,7.09,0,.99.75,2.24,1.62,2.98l2.36,21.76c-.93.56-2.61,1-4.1,1h0s0,0,0,0c-1.49,0-2.98-.19-4.54-.56.87-1.68,1.18-3.48,1.18-5.16,0-3.48-1.49-8.71-2.86-8.71-4.73,0-9.7,6.47-9.7,11.44,0,.75.19,1.55.44,2.18-1.31.25-2.67.44-4.17.44h0s0,0,0,0c-5.22,0-8.58-3.17-10.7-6.53l-.37-.62c-2.36,0-5.66,4.23-7.65,6.9-.75,1-4.55,2-6.27,2.27-12.92,1.99-40.59,4.28-66.06-.15-.56-.1-5.29-.94-5.54-4.73l-1.24-16.67-3.36,4.23.25,2.67c-1.93,2.05-4.42,3.67-7.77,4.17-1.24,1.68-2.11,3.67-3.05,6.03,2.49,1.55,7.4,3.11,8.64,3.11.81,0,2.05-1.43,3.23-2.74l.25,2.74c.56,5.47,5.05,6.6,8.14,7.69,0,0,22.29,8.16,63.7-.16,3.03-.61,5.92-2.08,8.35-3.99.52-.41.96-.81,1.22-1.17,1.68,2.3,4.79,4.1,8.27,5.6l3.36-4.48c2.42,1.8,4.04,2.42,5.6,2.42h0s0,0,0,0c4.6,0,8.02-.68,10.57-1.8,2.92,1.43,6.34,2.18,9.08,2.18h0ZM26.68,162.4c2.42-1,4.48-2.36,5.66-3.98l.5,5.04c-2.36.31-3.92.19-6.16-1.06ZM117.79,168.31l2.74-1.12,2.24,3.48-4.97-2.36ZM142.6,167.25c-1.24-.56-2.43-1.24-3.42-1.99,1.06-1.37,3.42-2.61,3.98-2.61,1.12,0,2.74,2.11,3.36,3.11l-3.92,1.49Z"/>
    <path class="st0" d="M171.15,141.26l-3.86,5.85,1.49,23.26c.12,2.61,0,5.6-.37,6.96l.25.25c1.74-1.99,3.73-6.09,3.61-9.33l-1.12-26.99Z"/>
    <path class="st0" d="M186.08,177.95c2.98,0,8.58-1.12,9.7-3.11.25-.5,1.24-3.86,1.24-5.85,0-2.86-1.12-7.59-4.35-10.32l-3.86-3.23-3.36,4.85,5.35,4.35c2.11,1.74,3.23,3.23,4.35,5.35-2.61,1-5.97,1.62-8.71,1.62-3.61,0-4.35-1.37-4.35-3.36,0-.75.25-1.62.5-2.49l-.62-.25c-.75,1.74-1.62,3.73-1.62,5.6,0,4.85,1.62,6.84,5.72,6.84Z"/>
    <path class="st0" d="M203.12,177.33l.25.25c1.74-1.99,3.73-6.09,3.61-9.33l-1.12-26.99-3.86,5.85,1.49,23.26c.12,2.61,0,5.6-.37,6.96Z"/>
    <path class="st0" d="M218.44,184.32c3.56,2.17,7.55,3.46,11.23,3.46,4.48,0,13.18-9.83,13.18-16.29-.12-4.35-1.74-11.57-5.47-12.44l-2.98,6.34c2.98,1.87,5.1,3.73,7.34,6.97-3.23,4.73-12.69,10.7-17.16,11.57-1.68.31-3.4.09-5.12-.49,3.77-3.57,7.85-10.47,7.85-15.55,0-4.23-3.05-11.88-6.9-11.88-1.87,0-5.97,4.35-5.97,9.82,0,3.98,2.8,5.53,5.72,5.53,1.87,0,3.79-.62,5.1-1.68-1.99,7.28-11.88,11.63-15.17,12.25-2.67.5-5.66-.43-8.33-1.87l-.43.44c4.23,3.3,9.27,5.29,13.99,5.29.88,0,1.97-.55,3.13-1.47ZM220.34,164.83c-1.37-.05-2.67-.31-3.61-.81.5-.56,2.45-1.92,3.26-1.93,1.36-.01,3.84,1.85,3.84,1.85,0,0-2.44.93-3.49.89Z"/>
    <path class="st0" d="M61.23,156.34c19.78-3.98,42.07-6.63,42.07-6.63l1.48-3.16s-16.23,1.64-42.22,7.14c-.72.15-2.05,2.79-1.33,2.65Z"/>
    <path class="st0" d="M33.58,200.28c0-1.95-.61-3.51-1.82-4.67-1.21-1.16-2.87-1.74-4.98-1.74h-.1c-3.68,0-6.66,2.98-6.66,6.66v14.02h3.84v-7.86h1.45l3.98,7.86h4.28v-.24l-4.11-8.02c.89-.29,1.66-.73,2.29-1.34,1.21-1.16,1.82-2.72,1.82-4.67ZM28.76,202.36c-.55.5-1.34.75-2.36.75h-2.54v-2.52c0-1.74,1.41-3.15,3.15-3.15h-.61c1.02,0,1.81.25,2.36.75s.83,1.2.83,2.08-.28,1.58-.83,2.08Z"/>
    <path class="st0" d="M46.15,200.79c-1.11-.65-2.4-.97-3.86-.97s-2.75.32-3.86.97c-1.12.65-1.99,1.54-2.63,2.68-.64,1.14-.96,2.45-.96,3.93s.32,2.79.96,3.93c.64,1.14,1.51,2.04,2.63,2.68,1.11.65,2.4.97,3.86.97s2.75-.32,3.86-.97,1.99-1.54,2.63-2.68c.64-1.14.96-2.45.96-3.93s-.32-2.79-.96-3.93c-.64-1.14-1.51-2.04-2.63-2.68ZM45.49,209.66c-.3.64-.72,1.13-1.26,1.48-.54.35-1.19.52-1.94.52s-1.4-.17-1.94-.52c-.54-.35-.96-.84-1.26-1.48-.3-.64-.45-1.39-.45-2.25s.15-1.61.45-2.25c.3-.64.72-1.13,1.26-1.48.54-.35,1.19-.52,1.94-.52s1.4.17,1.94.52c.54.35.96.84,1.26,1.48.3.64.45,1.39.45,2.25s-.15,1.61-.45,2.25Z"/>
    <polygon class="st0" points="66.66 209.54 63.81 200.27 59.93 200.27 57.08 209.54 54.23 200.27 50.44 200.27 50.44 200.5 55.21 214.55 58.95 214.55 61.87 205 64.8 214.55 68.53 214.55 73.31 200.5 73.31 200.27 69.52 200.27 66.66 209.54"/>
    <path class="st0" d="M80.5,199.82c-1.71,0-3.11.43-4.23,1.29-1.11.86-1.81,1.93-2.09,3.2l3.2.67h.31c.09-.49.38-.93.87-1.34s1.13-.6,1.94-.6c.86,0,1.57.26,2.14.79.47.44.74.99.81,1.63l-3.87.33c-1.82.15-3.2.63-4.15,1.45-.95.81-1.42,1.92-1.42,3.3,0,.86.22,1.63.65,2.3.43.67,1.03,1.2,1.78,1.57.76.37,1.63.56,2.6.56,1.05,0,2-.21,2.84-.63.78-.39,1.43-.91,2-1.54v1.72h3.29v-8.06c0-2.12-.6-3.76-1.78-4.92-1.19-1.16-2.82-1.74-4.88-1.74ZM81.73,211.18c-.53.34-1.13.51-1.78.51-.6,0-1.1-.13-1.49-.38-.39-.25-.59-.58-.59-1s.16-.75.49-1.01c.33-.26.89-.43,1.7-.51l3.41-.28c-.05.48-.2.93-.46,1.37-.32.53-.74.97-1.28,1.31Z"/>
    <path class="st0" d="M100.96,194.32v7.26c-.43-.4-.9-.78-1.46-1.08-.84-.45-1.81-.67-2.89-.67-1.29,0-2.46.32-3.51.97-1.05.65-1.88,1.54-2.49,2.68-.61,1.14-.91,2.46-.91,3.96s.3,2.79.91,3.92c.61,1.13,1.44,2.02,2.49,2.67,1.05.65,2.22.97,3.51.97,1.09,0,2.05-.22,2.89-.66.69-.36,1.25-.82,1.74-1.35v1.56h3.51v-20.46l-.08-.22-3.71.45ZM100.6,209.6c-.32.64-.76,1.13-1.32,1.49s-1.23.53-2,.53-1.41-.18-1.98-.53-1.02-.85-1.33-1.49c-.32-.64-.48-1.37-.48-2.19s.16-1.58.48-2.21c.32-.63.76-1.12,1.33-1.48.57-.36,1.23-.53,1.98-.53s1.43.18,2,.53c.56.36,1,.85,1.32,1.48.32.63.48,1.36.48,2.21s-.16,1.55-.48,2.19Z"/>
    <path class="st0" d="M121.08,194.88l-7.48,19.45v.22h3.91l1.64-4.41h7.56l1.64,4.41h3.99v-.22l-7.48-19.45h-3.79ZM125.38,206.54h-4.88l2.44-6.55,2.44,6.55Z"/>
    <polygon class="st0" points="134.18 194.32 134.18 214.55 137.97 214.55 137.97 194.09 137.89 193.87 134.18 194.32"/>
    <path class="st0" d="M165.85,210.12c.81-1.55,1.21-3.35,1.21-5.41s-.4-3.86-1.21-5.41c-.81-1.55-1.93-2.74-3.36-3.6-1.43-.85-3.1-1.28-4.99-1.28s-3.53.43-4.97,1.28c-1.44.85-2.57,2.05-3.37,3.6-.81,1.55-1.21,3.35-1.21,5.41s.4,3.86,1.21,5.41c.81,1.55,1.93,2.74,3.37,3.6,1.44.85,3.1,1.28,4.97,1.28s3.56-.43,4.99-1.28c0,0,0,0,0,0l.74.83h4.69v-.22l-2.76-3.09c.25-.35.47-.72.68-1.11ZM157.5,211.4c-1.12,0-2.12-.27-2.99-.82-.87-.54-1.55-1.32-2.04-2.32-.49-1-.73-2.19-.73-3.55s.24-2.58.73-3.57c.49-.99,1.17-1.76,2.04-2.31.87-.54,1.87-.81,2.99-.81s2.12.27,2.99.81c.87.54,1.55,1.31,2.04,2.31.49.99.73,2.18.73,3.57s-.24,2.55-.73,3.55c0,0,0,0,0,0l-3.17-3.56-2.67,2.5,3.27,3.66c-.74.35-1.55.53-2.45.53Z"/>
    <path class="st0" d="M171.78,193.89c-.64,0-1.18.22-1.63.67s-.67.98-.67,1.6.22,1.18.67,1.63.99.67,1.63.67,1.15-.22,1.6-.67.67-.99.67-1.63-.23-1.15-.67-1.6-.98-.67-1.6-.67Z"/>
    <rect class="st0" x="169.87" y="200.27" width="3.79" height="14.28"/>
    <path class="st0" d="M197.67,200.48c-.81-.44-1.7-.66-2.66-.66-.82,0-1.62.15-2.37.44-.76.29-1.43.71-2.02,1.25-.3.27-.56.58-.8.92-.37-.68-.84-1.25-1.46-1.66-.94-.63-1.98-.94-3.12-.94-.86,0-1.62.12-2.26.37-.65.24-1.2.59-1.67,1.04-.27.26-.52.57-.76.91v-1.86h-3.51v14.28h3.79v-6.94c0-1.2.19-2.11.58-2.74.38-.63.84-1.06,1.36-1.31.52-.24,1-.36,1.43-.36.54,0,1.01.13,1.39.39.38.26.68.65.9,1.15s.32,1.12.32,1.85v7.95h3.79v-6.94c0-1.2.19-2.11.58-2.74.38-.63.84-1.06,1.36-1.31.52-.24,1-.36,1.43-.36.54,0,1.01.13,1.39.39.38.26.68.65.9,1.15s.32,1.12.32,1.85v7.95h3.79v-8.88c0-1.29-.25-2.37-.74-3.23-.5-.86-1.15-1.51-1.97-1.95Z"/>
    <path class="st0" d="M224.26,200.48c-.81-.44-1.7-.66-2.66-.66-.82,0-1.62.15-2.37.44-.76.29-1.43.71-2.02,1.25-.3.27-.56.58-.8.92-.37-.68-.84-1.25-1.46-1.66-.94-.63-1.98-.94-3.12-.94-.86,0-1.62.12-2.26.37-.65.24-1.2.59-1.67,1.04-.27.26-.52.57-.76.91v-1.86h-3.51v14.28h3.79v-6.94c0-1.2.19-2.11.58-2.74.38-.63.84-1.06,1.36-1.31.52-.24,1-.36,1.43-.36.54,0,1.01.13,1.39.39.38.26.68.65.9,1.15s.32,1.12.32,1.85v7.95h3.79v-6.94c0-1.2.19-2.11.58-2.74.38-.63.84-1.06,1.36-1.31.52-.24,1-.36,1.43-.36.54,0,1.01.13,1.39.39.38.26.68.65.9,1.15s.32,1.12.32,1.85v7.95h3.79v-8.88c0-1.29-.25-2.37-.74-3.23-.5-.86-1.15-1.51-1.97-1.95Z"/>
    <path class="st0" d="M235.99,199.82c-1.71,0-3.11.43-4.23,1.29-1.11.86-1.81,1.93-2.09,3.2l3.2.67h.31c.09-.49.38-.93.87-1.34s1.13-.6,1.94-.6c.86,0,1.57.26,2.14.79.47.44.74.99.81,1.63l-3.87.33c-1.82.15-3.2.63-4.15,1.45-.95.81-1.42,1.92-1.42,3.3,0,.86.22,1.63.65,2.3.43.67,1.03,1.2,1.78,1.57.76.37,1.63.56,2.6.56,1.05,0,2-.21,2.84-.63.78-.39,1.43-.91,2-1.54v1.72h3.29v-8.06c0-2.12-.6-3.76-1.78-4.92-1.19-1.16-2.82-1.74-4.88-1.74ZM237.21,211.18c-.53.34-1.13.51-1.78.51-.6,0-1.1-.13-1.49-.38-.39-.25-.59-.58-.59-1s.16-.75.49-1.01c.33-.26.89-.43,1.7-.51l3.41-.28c-.05.48-.2.93-.46,1.37-.32.53-.74.97-1.28,1.31Z"/>
  </g>
  <g>
    <path class="st0" d="M134.02,73.14l7.63,6.45c4.76-3.38,7.87-8.95,7.87-15.23,0-10.31-8.36-18.67-18.67-18.67-3.4,0-6.59.91-9.33,2.5-3.23,1.87-5.85,4.68-7.48,8.06-1.17,2.42-1.84,5.14-1.85,8.01h0v28.11h9.33v-11.45l13.23,11.18.32.27h14.46l-4.53-3.83-7.81-6.61-12.09-10.22-.05-.04-.29-.25-.06-.05h0s-.02-.02-.02-.02c-1.93-1.71-3.15-4.21-3.15-6.99,0-.57.05-1.12.15-1.66.78-4.36,4.6-7.67,9.18-7.67,5.15,0,9.33,4.18,9.33,9.33,0,4.04-2.57,7.49-6.17,8.78Z"/>
    <path class="st0" d="M163.19,45.69c-6.45-11.16-18.52-18.67-32.34-18.67s-25.88,7.51-32.34,18.67c-3.18,5.49-5,11.87-5,18.67v46.67h74.67v-46.67c0-6.8-1.82-13.18-5-18.67ZM158.85,92.36v9.33h-56v-37.34c0-15.46,12.54-28,28-28s28,12.54,28,28v28Z"/>
  </g>
</svg>